<?xml version="1.0" encoding="iso-8859-1"?>
<!-- Uploaded to: SVG Repo, www.svgrepo.com, Generator: SVG Repo Mixer Tools -->
<svg height="800px" width="800px" version="1.1" id="Layer_1" xmlns="http://www.w3.org/2000/svg" xmlns:xlink="http://www.w3.org/1999/xlink" 
	 viewBox="0 0 512 512" xml:space="preserve">
<path style="fill:#FF877F;" d="M115.038,353.143c-77.73-77.73-77.73-204.203,0-281.933C152.687,33.562,202.752,12.826,256,12.826
	c53.248,0,103.305,20.736,140.962,58.394c37.598,37.598,58.308,87.654,58.308,140.962s-20.702,103.364-58.3,140.962
	C396.245,353.869,256,493.875,256,493.875L115.038,353.143z"/>
<path style="fill:#BDC4D0;" d="M256,301.773c-49.408,0-89.6-40.192-89.6-89.6s40.192-89.6,89.6-89.6s89.6,40.192,89.6,89.6
	S305.408,301.773,256,301.773z"/>
<g>
	<path style="fill:#573A32;" d="M161.604,251.887l-22.852,13.193l12.8,22.178l23.202-13.397c5.623,7.39,12.177,13.943,19.567,19.567
		l-13.389,23.194l22.153,12.8l13.193-22.852c8.414,3.55,17.545,5.53,26.931,6.716v26.889h25.6v-26.889
		c9.387-1.186,18.517-3.166,26.931-6.716l13.193,22.852l22.153-12.8l-13.389-23.194c7.39-5.623,13.943-12.177,19.567-19.567
		l23.202,13.397l12.8-22.178l-22.852-13.193c3.541-8.414,5.53-17.536,6.716-26.923H384v-25.6h-26.889
		c-1.186-9.378-3.166-18.509-6.716-26.923l22.852-13.193l-12.8-22.178l-23.202,13.397c-5.623-7.39-12.177-13.943-19.567-19.567
		l13.389-23.194l-22.153-12.8l-13.201,22.852c-8.414-3.55-17.545-5.53-26.931-6.716V84.173h-25.6v26.889
		c-9.387,1.186-18.509,3.166-26.931,6.716l-13.201-22.852l-22.153,12.8l13.389,23.194c-7.39,5.623-13.943,12.177-19.567,19.567
		l-23.202-13.397l-12.8,22.178l22.852,13.193c-3.541,8.414-5.53,17.536-6.716,26.923H128v25.6h26.889
		C156.075,234.351,158.054,243.473,161.604,251.887z M256,135.373c42.351,0,76.8,34.449,76.8,76.8s-34.449,76.8-76.8,76.8
		c-42.351,0-76.8-34.449-76.8-76.8S213.649,135.373,256,135.373z"/>
	<path style="fill:#573A32;" d="M256,512c0,0,149.197-148.949,150.033-149.786c82.859-82.859,82.859-217.207,0-300.066
		C364.604,20.719,310.306,0,256,0c-54.298,0-108.604,20.719-150.033,62.148c-82.859,82.859-82.859,217.207,0,300.066
		C106.803,363.051,256,512,256,512z M124.083,80.265C159.326,45.03,206.174,25.626,256,25.626
		c49.835,0,96.683,19.405,131.917,54.639c72.738,72.738,72.738,191.087,0,263.825c-0.845,0.845-92.194,92.041-131.917,131.703
		c-39.723-39.663-131.072-130.859-131.908-131.695C51.354,271.36,51.354,153.003,124.083,80.265z"/>
</g>
</svg>